<?xml version="1.0" encoding="utf-8"?>
<!-- Generator: Adobe Illustrator 15.0.0, SVG Export Plug-In . SVG Version: 6.00 Build 0)  -->
<!DOCTYPE svg PUBLIC "-//W3C//DTD SVG 1.1//EN" "http://www.w3.org/Graphics/SVG/1.1/DTD/svg11.dtd">
<svg version="1.1" id="Logo" xmlns="http://www.w3.org/2000/svg" xmlns:xlink="http://www.w3.org/1999/xlink" x="0px" y="0px"
	 width="500px" height="342.293px" viewBox="0 0 500 342.293" enable-background="new 0 0 500 342.293" xml:space="preserve">
<g>
	<g>
		<path fill="#BB2512" d="M56.136,65.742c0,0,2.169,8.676,0.542,17.171c-1.627,8.495-1.627,11.748,0.361,14.64
			c1.988,2.892,5.965,4.157,6.688,4.699c0.723,0.542,0.723,0.542,0.723,0.542s1.808-0.361,0.723-5.964
			c-1.084-5.604,2.892-8.495,5.061-3.615c0.869,1.954,4.665,10.716,10.92,20.833c1.214,0.156,2.393,0.359,3.533,0.608
			c3.786,0.83,7.159,2.358,10.029,4.545c0.258,0.197,0.504,0.407,0.753,0.615l22.135-6.545l8.48,2.178
			c0.834-0.302,1.682-0.573,2.54-0.812c2.128-0.593,4.295-0.956,6.443-1.08c0.699-0.039,1.385-0.058,2.059-0.058
			c1.359,0,2.724,0.078,4.056,0.231c2.341,0.271,4.579,0.833,6.652,1.671c1.03,0.417,2.019,0.909,2.963,1.475
			c0.12-0.06,0.24-0.12,0.361-0.178c1.876-0.906,3.917-1.638,6.067-2.176c2.287-0.571,4.757-0.862,7.341-0.862
			c4.165,0,7.939,0.75,11.219,2.226c3.558,1.605,6.527,3.982,8.831,7.068c0.359,0.481,0.695,0.984,1.02,1.497
			c0.027-0.029,0.052-0.059,0.079-0.087c3.122-3.32,6.939-5.964,11.346-7.858c4.396-1.889,9.319-2.846,14.635-2.846
			c3.847,0,7.367,0.469,10.495,1.391v-17.77l29.013-3.299l11.824,3.671v11.789c0.288-0.27,0.575-0.54,0.87-0.802
			c2.88-2.565,6.067-4.761,9.476-6.526c3.38-1.75,7.005-3.1,10.775-4.013c3.767-0.911,7.642-1.373,11.521-1.373
			c2.464,0,4.784,0.128,6.895,0.379c1.945,0.231,3.768,0.51,5.418,0.827c1.642,0.315,3.158,0.657,4.51,1.015
			c0.918,0.244,1.751,0.44,2.48,0.586l8.873,1.768l-0.808,15.681c0.822-0.308,1.698-0.607,2.642-0.9
			c2.238-0.693,4.714-1.256,7.572-1.719c2.894-0.468,6.092-0.705,9.511-0.705c3.478,0,6.771,0.335,9.788,0.995
			c3.786,0.83,7.158,2.358,10.028,4.545c1.264,0.964,2.405,2.062,3.433,3.277c0.197-0.199,0.396-0.396,0.601-0.587
			c1.721-1.605,3.688-2.982,5.851-4.096c1.902-0.98,3.916-1.785,5.986-2.389c1.886-0.553,3.811-0.977,5.725-1.263
			c1.886-0.282,3.722-0.443,5.462-0.48c0.378-0.006,0.718-0.009,1.058-0.009c1.538,0,3.104,0.061,4.652,0.181
			c1.85,0.144,3.651,0.356,5.358,0.632c1.666,0.271,3.239,0.58,4.682,0.918c1.694,0.4,3.149,0.839,4.449,1.343l6.688,2.59v0.691
			c1.936-1.357,4.04-2.53,6.302-3.502c0.756-0.325,1.533-0.612,2.32-0.882c-0.102-2.325-0.3-4.432-0.657-5.962
			c-1.266-5.422-0.361-4.518-2.169-10.844c-1.808-6.326-11.748-17.532-15.905-19.881c-4.157-2.35-6.868-8.134-9.398-10.122
			c-2.53-1.988-14.459-9.037-24.581-12.833c-10.121-3.796-15.001-10.664-18.797-15.363S330.5,15.497,309.715,5.557
			C288.93-4.384,286.761,1.4,282.424,4.653c-4.338,3.254-11.026,2.53-18.255,10.122c-7.229,7.591-9.941,17.531-19.339,22.953
			s-13.555,7.229-21.146,7.59c-7.591,0.362-29.823,2.712-53.5,31.269c-23.676,28.557-38.678,22.412-42.112,21.508
			c-3.434-0.904-15.905-6.506-24.942-32.172c0,0-0.354-0.621,0-4.338c0.419-4.411,1.806-4.422-0.362-6.688
			c-3.004-3.139-6.326-6.688-8.314-14.459c-1.988-7.772-7.591-12.651-9.218-14.459c-1.627-1.807-0.904-3.796-3.253-3.615
			c-2.35,0.182-2.169-0.181-1.988-2.53c0.181-2.349,0.723-5.783,0.723-5.783s-1.626-6.145-6.688-1.265c0,0-1.988,2.892-5.061,2.892
			c-3.073,0-9.037-0.361-12.471,1.627c-3.434,1.988-6.506,0.542-8.314,1.626c-1.808,1.084-3.615,1.446-10.121,0.723
			c-6.507-0.723-7.411,0-16.086-0.361c-8.676-0.361-11.207,2.35-14.46,6.688c-3.253,4.337-7.772,8.676-7.41,11.567
			s3.073,3.795,3.073,3.795s-1.446,2.892-2.53,3.976c-1.084,1.085-1.084,3.796,2.169,2.711s6.326-3.615,7.41-3.073
			c1.084,0.542,2.892,1.266,4.157,1.085c1.265-0.182,4.157-0.362,5.964,1.626c1.807,1.988,3.796,0.723,4.699,0.723
			c0.904,0,11.387,5.422,15.544,6.326s6.692,0.566,5.334,2.61c0,0-0.518,0.874,0.567,0.512c1.085-0.361,3.077-0.838,1.309,1.745
			c-1.657,2.42,6.857-3.431,1.788,3.162c-0.693,0.901,1.457,0.598,3.445-0.306C55.024,61.537,55.594,62.127,56.136,65.742z"/>
		<path fill="#BB2512" d="M249.891,328.181c-1.808-1.085-3.073-5.784-3.073-5.784s2.039-3.853,2.169-5.061
			c0.097-0.899,0.279-3.659,0-4.519c-0.375-1.152-0.723-4.88-2.35-7.953c0,0-1.989-25.303-2.35-34.702
			c-0.361-9.398,0.904-20.243,0.904-21.509c0-1.265,0.362-3.614-0.904-6.325c-1.091-2.337-8.224-42.811-9.825-60.884h-11.581v-0.487
			c-1.827,0.486-3.734,0.881-5.695,1.17c-2.128,0.312-4.3,0.47-6.457,0.47c-0.401,0-0.803-0.005-1.205-0.016
			c-2.268-0.051-4.446-0.255-6.53-0.6c-0.09,0.395-0.231,0.708-0.097,1.246c0.361,1.446,15.544,31.449,18.797,46.451
			c3.254,15.001,2.169,18.254,4.338,21.869c2.169,3.614,4.7,9.036,4.88,11.748c0.18,2.711,1.446,19.881,1.084,24.761
			c-0.361,4.88-1.084,18.255-1.988,19.521c-0.903,1.266-1.807,2.529-3.433,2.892c-1.627,0.361-2.893,0.542-4.158,0.903
			c-1.265,0.362-0.904-1.084-2.35-0.723s-5.604,1.988-5.604,4.699c0,0-0.542,0.542,1.808,0.904c0,0-1.627,2.53-0.723,2.892
			s5.965,1.445,8.133,1.808c2.168,0.361,4.338-0.543,11.567,0c0,0-0.542,3.254-3.434,4.88c0,0-2.53-0.181-5.241,1.265
			c0,0-4.519-0.903-4.519,1.266c0,2.168,0.502,3.976,0.904,4.156c0.556,0.251,1.808-0.181,2.531,0c0,0-0.543,1.627,0.723,2.531
			c1.265,0.903,1.529,1.401,2.169,1.626c0.307,0.108,4.157,0.361,6.868,0.904c2.711,0.542,3.796-1.265,5.603-2.169
			s7.591-1.627,8.856-1.446c0,0,1.807-1.085,1.988-3.435C251.698,330.53,251.698,329.265,249.891,328.181z"/>
		<path fill="#BB2512" d="M422.168,180.296c-3.758-1.353-7.079-3.293-9.894-5.776c-1.281,1.182-2.693,2.241-4.245,3.156
			c-2.999,1.766-6.438,3.036-10.223,3.777c-3.282,0.643-6.766,0.968-10.354,0.968c-1.619,0-3.336-0.083-5.104-0.249
			c-1.83-0.171-3.677-0.447-5.49-0.82c-1.871-0.385-3.714-0.883-5.476-1.482c-0.223-0.076-0.437-0.162-0.655-0.242
			c-0.935,0.489-1.911,0.917-2.934,1.263c-0.769,0.26-1.557,0.485-2.356,0.68c1.295,2.534,3.106,5.665,4.104,7.439
			c1.627,2.892-1.084-0.001,1.988,5.241c3.073,5.241,7.049,10.663,7.23,13.194c0.181,2.53,0.181,11.387,1.445,18.978
			s2.35,16.268,1.265,18.436c-1.084,2.169-1.626,6.687-1.084,9.76c0.542,3.072-6.688,41.209-20.785,54.945
			c0,0-3.977,2.351-5.964,3.073c-1.988,0.723-6.52-0.209-10.527,5.698c0,0-2.848,2.615,1.129,2.615c3.976,0,6.507-0.361,9.037,1.085
			c2.53,1.445,3.976,0.902,5.422,0.361c1.446-0.543,7.952-2.17,10.121-2.531s1.808-1.446,0.904-2.711
			c-0.904-1.265,1.626-4.518,4.338-7.771c0,0,1.626-2.711,0-5.422c0,0,4.88-12.833,11.929-23.858c0,0,0,12.652-9.761,35.426
			c0,0-3.796,4.156-7.049,9.579c0,0-4.337,1.627-10.844,7.049c0,0-6.87-1.269-8.315,6.144c0,0,1.808,2.711,9.399,3.615
			c7.591,0.903,11.748-0.001,13.917-0.724s4.078-1.903,6.507-1.445c1.356,0.256,1.626-2.711,1.807-5.604
			c0.181-2.892,1.808-5.061,1.808-5.061s0.723-2.35,0.361-4.519s18.075-56.753,29.461-69.586c0,0,1.266-0.36,0.181-5.241
			c-1.084-4.88-4.157-22.231-5.783-31.449c-1.626-9.217-0.542-11.024-0.542-11.024s1.988-10.303,1.265-12.652
			c-0.723-2.35,2.531-5.061,2.893-1.084c0.361,3.976,1.578,7.65,2.53,10.845c0.97,3.256-0.698,7.834,0.361,7.952
			c2.018,0.224,5.285-20.935,4.01,2.336c-0.13,2.388,2.977-0.981,3.22-7.758c0.077-2.168,1.301-1.919,2.169-2.169
			c1.415-0.41,0.724-3.615,6.326-5.061c5.603-1.446,4.337-6.146,3.795-7.23s1.808-5.604,1.988-6.507
			c0.146-0.726-0.991-2.266-1.726-3.407C429.681,182.319,425.716,181.574,422.168,180.296z"/>
	</g>
	<g>
		<path fill="#032C42" d="M6.152,149.608c-0.027-3.934,0.617-7.455,1.934-10.562c1.315-3.106,3.113-5.746,5.393-7.917
			c2.28-2.17,4.959-3.846,8.039-5.027c3.079-1.181,6.383-1.838,9.911-1.974c1.384-0.027,2.835,0,4.355,0.082
			c1.519,0.081,2.964,0.217,4.334,0.407c1.37,0.19,2.611,0.421,3.725,0.692c1.112,0.271,1.98,0.583,2.605,0.936v12.903H39
			l-3.215-7.652c-0.76-0.461-1.628-0.746-2.605-0.855c-0.978-0.108-1.9-0.163-2.768-0.163c-1.384,0-2.632,0.34-3.745,1.018
			c-1.113,0.678-2.07,1.662-2.87,2.951c-0.801,1.289-1.432,2.87-1.893,4.741c-0.462,1.873-0.733,4.003-0.814,6.391
			c-0.109,3.283,0.183,6.099,0.875,8.446c0.692,2.347,1.655,4.268,2.89,5.759c1.235,1.493,2.672,2.584,4.314,3.276
			c1.642,0.692,3.372,1.038,5.19,1.038c1.221,0,2.415-0.081,3.582-0.244c1.167-0.163,2.245-0.373,3.236-0.63
			c0.99-0.258,1.886-0.563,2.687-0.916c0.8-0.353,1.445-0.719,1.933-1.099l2.157,5.087c-2.171,1.873-4.884,3.312-8.14,4.314
			c-3.256,1.004-6.947,1.506-11.071,1.506c-3.663,0-6.893-0.564-9.688-1.689c-2.795-1.126-5.149-2.693-7.062-4.701
			c-1.913-2.008-3.358-4.382-4.335-7.124C6.682,155.863,6.179,152.865,6.152,149.608z"/>
		<path fill="#032C42" d="M52.635,154.94c0.379-1.573,1.112-2.985,2.198-4.233c1.085-1.248,2.388-2.333,3.907-3.256
			c1.52-0.922,3.188-1.703,5.007-2.34c1.817-0.638,3.649-1.16,5.495-1.567c1.845-0.406,3.629-0.698,5.353-0.875
			c1.723-0.176,3.262-0.265,4.62-0.265c0-2.171-0.19-3.935-0.57-5.292c-0.38-1.356-0.943-2.422-1.689-3.195
			c-0.747-0.774-1.656-1.303-2.728-1.587c-1.072-0.285-2.299-0.427-3.683-0.427c-1.765,0-3.399,0.142-4.905,0.427
			c-1.506,0.285-2.849,0.617-4.03,0.997c-1.18,0.381-2.157,0.768-2.931,1.16c-0.773,0.394-1.309,0.699-1.607,0.916l-2.768-6.268
			c0.434-0.353,1.207-0.814,2.319-1.384c1.113-0.57,2.544-1.126,4.294-1.669c1.75-0.542,3.799-1.003,6.146-1.384
			c2.347-0.38,4.959-0.57,7.835-0.57c2.74,0,5.257,0.251,7.55,0.753c2.293,0.502,4.267,1.384,5.922,2.646
			c1.655,1.262,2.944,2.971,3.867,5.128c0.922,2.158,1.384,4.892,1.384,8.202v24.584h5.332v4.355c-0.706,0.489-1.5,0.882-2.381,1.18
			c-0.882,0.299-1.798,0.529-2.748,0.692c-0.95,0.162-1.893,0.278-2.829,0.346c-0.936,0.067-1.798,0.102-2.584,0.102
			c-0.516,0-1.181-0.055-1.995-0.164c-0.813-0.108-1.607-0.332-2.381-0.671s-1.445-0.814-2.015-1.425
			c-0.57-0.611-0.882-1.404-0.936-2.381c-1.412,1.33-3.08,2.436-5.007,3.317c-1.927,0.881-4.192,1.323-6.797,1.323
			c-3.555,0-6.519-0.482-8.893-1.445c-2.375-0.963-4.227-2.238-5.556-3.826c-1.33-1.587-2.164-3.419-2.503-5.495
			C51.99,159.275,52.091,157.139,52.635,154.94z M66.718,157.342c0,2.632,0.746,4.532,2.239,5.698
			c1.492,1.167,3.676,1.547,6.553,1.14c0.733-0.108,1.397-0.305,1.995-0.59c0.597-0.285,1.153-0.617,1.669-0.997
			c0-2.333,0.006-4.66,0.02-6.98c0.014-2.32,0.021-4.646,0.021-6.981c-0.841,0-1.737,0.048-2.686,0.143
			c-0.951,0.095-1.887,0.264-2.809,0.509c-0.923,0.244-1.805,0.584-2.646,1.018c-0.841,0.435-1.587,0.971-2.238,1.608
			c-0.651,0.638-1.167,1.404-1.547,2.3C66.907,155.103,66.718,156.148,66.718,157.342z"/>
		<path fill="#032C42" d="M103.146,165.442l5.047-1.018v-26.783l-5.536-3.907v-5.128l15.142-4.478l3.012,0.774v6.024
			c0.841-0.896,1.825-1.744,2.951-2.544c1.125-0.8,2.333-1.512,3.623-2.137c1.289-0.625,2.639-1.133,4.05-1.526
			c1.411-0.394,2.822-0.632,4.233-0.712c1.465-0.082,2.903-0.041,4.314,0.122c1.411,0.163,2.72,0.489,3.928,0.978
			c1.207,0.488,2.292,1.173,3.256,2.056c0.963,0.882,1.744,1.987,2.34,3.316c0.841-0.787,1.777-1.56,2.809-2.32
			c1.031-0.759,2.164-1.437,3.399-2.035c1.234-0.596,2.584-1.078,4.05-1.444c1.465-0.367,3.066-0.55,4.803-0.55
			c2.687,0,4.993,0.435,6.919,1.303c1.926,0.868,3.507,2.131,4.742,3.785c1.234,1.656,2.144,3.684,2.727,6.085
			c0.583,2.402,0.875,5.149,0.875,8.242v20.8l5.698,1.099v5.535h-24.869v-5.535l4.762-1.14v-18.926c0-2.605-0.156-4.694-0.468-6.268
			c-0.312-1.574-0.808-2.789-1.485-3.644c-0.679-0.854-1.554-1.417-2.625-1.69c-1.072-0.271-2.354-0.406-3.846-0.406
			c-0.95,0-1.968,0.21-3.053,0.63c-1.086,0.421-2.035,0.903-2.85,1.445c0.136,0.679,0.237,1.526,0.306,2.544
			c0.067,1.017,0.102,2.462,0.102,4.334v22.021l5.78,1.099v5.535h-25.968v-5.535l5.78-1.18V145.09c0-2.605-0.204-4.701-0.611-6.289
			c-0.407-1.587-0.997-2.802-1.771-3.643c-0.773-0.84-1.737-1.363-2.89-1.567c-1.154-0.204-2.477-0.25-3.969-0.142
			c-0.325,0.027-0.746,0.102-1.262,0.224c-0.516,0.122-1.031,0.278-1.547,0.468c-0.516,0.189-0.997,0.4-1.444,0.63
			c-0.448,0.231-0.781,0.468-0.998,0.712v28.817l5.332,1.14v5.535h-24.788V165.442z"/>
		<path fill="#032C42" d="M186.704,149.364c0-3.473,0.57-6.743,1.709-9.809s2.781-5.739,4.925-8.019
			c2.143-2.279,4.762-4.083,7.855-5.414c3.093-1.329,6.594-1.994,10.501-1.994c3.283,0,6.105,0.421,8.466,1.262
			c2.361,0.842,4.301,2.015,5.821,3.521c1.52,1.506,2.659,3.304,3.419,5.393c0.759,2.09,1.181,4.37,1.262,6.838
			c0.054,1.709,0.013,3.23-0.122,4.559c-0.136,1.33-0.285,2.564-0.448,3.704h-28.37c0.38,4.803,1.621,8.426,3.725,10.868
			c2.103,2.442,5.162,3.663,9.178,3.663c1.98,0,4.091-0.209,6.329-0.631c2.239-0.42,4.457-1.119,6.655-2.096l2.157,5.087
			c-1.031,0.869-2.286,1.669-3.765,2.402c-1.479,0.733-3.087,1.357-4.824,1.872c-1.736,0.516-3.575,0.916-5.515,1.201
			c-1.94,0.285-3.901,0.4-5.882,0.346c-3.69-0.082-6.967-0.638-9.83-1.669c-2.863-1.031-5.278-2.516-7.245-4.457
			c-1.968-1.939-3.46-4.3-4.478-7.082C187.213,156.127,186.704,152.946,186.704,149.364z M216.661,142.852
			c0.082-1.003,0.163-2.082,0.244-3.235c0.082-1.153,0.074-2.28-0.021-3.378c-0.095-1.099-0.333-2.123-0.712-3.073
			c-0.38-0.95-0.977-1.709-1.791-2.279c-0.489-0.353-1.058-0.617-1.709-0.793s-1.411-0.265-2.28-0.265
			c-1.574,0-2.889,0.386-3.948,1.161c-1.058,0.772-1.92,1.777-2.584,3.011c-0.666,1.236-1.154,2.626-1.466,4.173
			c-0.312,1.546-0.522,3.107-0.63,4.68H216.661z"/>
		<path fill="#032C42" d="M233.349,165.442l4.803-1.018v-49.779l-5.494-2.32v-5.698l17.542-1.994l2.36,0.732v58.856l7.124,1.221
			v5.535h-26.335V165.442z"/>
		<path fill="#032C42" d="M259.849,141.508c0-3.5,0.462-6.783,1.384-9.85c0.922-3.066,2.199-5.868,3.826-8.405
			c1.629-2.538,3.562-4.804,5.801-6.797c2.238-1.995,4.681-3.677,7.326-5.047c2.646-1.371,5.455-2.415,8.426-3.134
			c2.972-0.719,5.989-1.079,9.057-1.079c2.062,0,3.948,0.102,5.657,0.306c1.71,0.203,3.27,0.441,4.681,0.712
			c1.41,0.271,2.68,0.556,3.806,0.855c1.126,0.298,2.164,0.542,3.114,0.732l-0.814,15.833h-8.548l-2.971-8.344
			c-0.271-0.407-0.604-0.766-0.997-1.079c-0.394-0.311-0.916-0.575-1.567-0.793c-0.651-0.217-1.479-0.387-2.483-0.509
			s-2.252-0.183-3.744-0.183c-2.253,0-4.342,0.508-6.268,1.526c-1.928,1.017-3.603,2.503-5.027,4.457
			c-1.425,1.954-2.544,4.362-3.358,7.225c-0.813,2.863-1.221,6.14-1.221,9.83c0,2.333,0.163,4.633,0.488,6.899
			c0.326,2.266,0.808,4.417,1.445,6.452c0.638,2.035,1.425,3.907,2.36,5.617c0.937,1.709,2.028,3.188,3.277,4.437
			c1.247,1.248,2.645,2.225,4.191,2.93s3.229,1.058,5.048,1.058c1.709,0,3.147-0.088,4.313-0.265
			c1.167-0.176,2.123-0.413,2.87-0.712c0.746-0.298,1.323-0.644,1.729-1.038c0.407-0.393,0.706-0.808,0.896-1.241l3.338-8.182h7.082
			v14.531c-1.031,0.054-2.13,0.285-3.297,0.692c-1.166,0.407-2.563,0.841-4.192,1.302c-1.627,0.462-3.555,0.889-5.78,1.283
			c-2.225,0.393-4.884,0.59-7.978,0.59c-5.209,0-9.803-0.794-13.777-2.381s-7.3-3.765-9.972-6.533
			c-2.674-2.768-4.695-6.01-6.065-9.728C260.534,149.758,259.849,145.769,259.849,141.508z"/>
		<path fill="#032C42" d="M320.496,154.94c0.38-1.573,1.112-2.985,2.198-4.233c1.084-1.248,2.387-2.333,3.907-3.256
			c1.52-0.922,3.188-1.703,5.007-2.34c1.817-0.638,3.648-1.16,5.494-1.567c1.846-0.406,3.629-0.698,5.353-0.875
			c1.723-0.176,3.263-0.265,4.619-0.265c0-2.171-0.189-3.935-0.568-5.292c-0.381-1.356-0.943-2.422-1.689-3.195
			c-0.747-0.774-1.656-1.303-2.728-1.587c-1.072-0.285-2.3-0.427-3.684-0.427c-1.765,0-3.398,0.142-4.904,0.427
			c-1.507,0.285-2.85,0.617-4.029,0.997c-1.182,0.381-2.158,0.768-2.932,1.16c-0.772,0.394-1.31,0.699-1.607,0.916l-2.768-6.268
			c0.434-0.353,1.207-0.814,2.32-1.384c1.112-0.57,2.544-1.126,4.294-1.669c1.75-0.542,3.798-1.003,6.146-1.384
			c2.348-0.38,4.959-0.57,7.836-0.57c2.74,0,5.257,0.251,7.55,0.753s4.267,1.384,5.922,2.646c1.655,1.262,2.944,2.971,3.867,5.128
			c0.922,2.158,1.384,4.892,1.384,8.202v24.584h5.332v4.355c-0.706,0.489-1.5,0.882-2.381,1.18
			c-0.882,0.299-1.798,0.529-2.747,0.692c-0.95,0.162-1.894,0.278-2.829,0.346c-0.937,0.067-1.799,0.102-2.585,0.102
			c-0.516,0-1.18-0.055-1.994-0.164c-0.814-0.108-1.607-0.332-2.381-0.671s-1.445-0.814-2.016-1.425
			c-0.569-0.611-0.882-1.404-0.936-2.381c-1.411,1.33-3.08,2.436-5.007,3.317c-1.927,0.881-4.192,1.323-6.797,1.323
			c-3.555,0-6.52-0.482-8.894-1.445c-2.375-0.963-4.228-2.238-5.556-3.826c-1.33-1.587-2.164-3.419-2.503-5.495
			C319.852,159.275,319.953,157.139,320.496,154.94z M334.579,157.342c0,2.632,0.746,4.532,2.238,5.698
			c1.492,1.167,3.677,1.547,6.554,1.14c0.732-0.108,1.397-0.305,1.994-0.59c0.597-0.285,1.153-0.617,1.669-0.997
			c0-2.333,0.006-4.66,0.021-6.98c0.014-2.32,0.02-4.646,0.02-6.981c-0.841,0-1.736,0.048-2.686,0.143
			c-0.951,0.095-1.886,0.264-2.809,0.509c-0.923,0.244-1.805,0.584-2.646,1.018c-0.842,0.435-1.588,0.971-2.239,1.608
			c-0.651,0.638-1.166,1.404-1.546,2.3C334.769,155.103,334.579,156.148,334.579,157.342z"/>
		<path fill="#032C42" d="M371.09,157.586h6.716l2.564,4.437c0.325,0.353,0.718,0.773,1.18,1.262
			c0.461,0.488,1.004,0.957,1.628,1.404s1.337,0.841,2.138,1.18c0.8,0.34,1.702,0.536,2.706,0.59
			c2.442,0.136,4.295-0.271,5.557-1.221c1.262-0.949,1.878-2.238,1.852-3.867c-0.027-0.732-0.333-1.431-0.916-2.096
			c-0.584-0.665-1.363-1.316-2.34-1.954c-0.977-0.638-2.097-1.262-3.358-1.873c-1.262-0.611-2.585-1.228-3.969-1.852
			c-1.927-0.895-3.771-1.852-5.535-2.87c-1.765-1.018-3.312-2.177-4.641-3.48c-1.329-1.302-2.388-2.774-3.175-4.417
			c-0.787-1.641-1.167-3.52-1.14-5.637c0.027-1.628,0.346-3.073,0.957-4.335c0.61-1.262,1.424-2.367,2.442-3.318
			c1.018-0.949,2.184-1.763,3.5-2.442c1.316-0.677,2.693-1.227,4.131-1.648c1.438-0.42,2.883-0.739,4.335-0.956
			c1.452-0.217,2.829-0.339,4.132-0.367c1.547-0.027,3.106,0.021,4.681,0.143c1.573,0.122,3.073,0.299,4.497,0.529
			c1.426,0.231,2.74,0.489,3.948,0.774c1.207,0.284,2.232,0.59,3.073,0.916v11.111h-7.163l-2.279-5.047
			c-0.706-0.841-1.582-1.587-2.626-2.238c-1.045-0.651-2.178-0.977-3.398-0.977c-0.76,0-1.5,0.068-2.218,0.203
			c-0.72,0.136-1.357,0.36-1.913,0.672c-0.557,0.313-1.004,0.707-1.344,1.181c-0.34,0.476-0.509,1.038-0.509,1.689
			c0,0.895,0.184,1.723,0.55,2.482c0.366,0.76,0.875,1.473,1.526,2.137c0.651,0.665,1.431,1.282,2.341,1.852
			c0.908,0.569,1.905,1.099,2.991,1.587c1.303,0.598,2.625,1.194,3.968,1.792c1.344,0.597,2.652,1.235,3.929,1.913
			c1.274,0.678,2.476,1.411,3.602,2.197c1.126,0.788,2.109,1.684,2.951,2.687c0.841,1.004,1.506,2.124,1.994,3.358
			s0.732,2.639,0.732,4.212c0,2.686-0.583,4.959-1.749,6.818c-1.168,1.859-2.741,3.372-4.723,4.538
			c-1.98,1.167-4.287,2.009-6.919,2.523c-2.632,0.516-5.413,0.773-8.344,0.773c-1.303,0-2.681-0.067-4.132-0.203
			c-1.451-0.136-2.903-0.353-4.355-0.652c-1.451-0.298-2.855-0.678-4.212-1.139c-1.357-0.461-2.578-1.018-3.663-1.669V157.586z"/>
		<path fill="#032C42" d="M412.467,149.364c0-3.473,0.569-6.743,1.71-9.809c1.139-3.066,2.78-5.739,4.924-8.019
			c2.144-2.279,4.763-4.083,7.855-5.414c3.094-1.329,6.595-1.994,10.502-1.994c3.283,0,6.105,0.421,8.466,1.262
			c2.36,0.842,4.301,2.015,5.821,3.521c1.519,1.506,2.658,3.304,3.418,5.393c0.76,2.09,1.181,4.37,1.262,6.838
			c0.055,1.709,0.014,3.23-0.122,4.559c-0.136,1.33-0.284,2.564-0.447,3.704h-28.369c0.379,4.803,1.62,8.426,3.724,10.868
			c2.103,2.442,5.162,3.663,9.179,3.663c1.98,0,4.091-0.209,6.329-0.631c2.238-0.42,4.457-1.119,6.654-2.096l2.157,5.087
			c-1.031,0.869-2.285,1.669-3.765,2.402c-1.479,0.733-3.087,1.357-4.823,1.872c-1.737,0.516-3.575,0.916-5.516,1.201
			s-3.9,0.4-5.881,0.346c-3.69-0.082-6.968-0.638-9.83-1.669c-2.863-1.031-5.278-2.516-7.245-4.457
			c-1.968-1.939-3.46-4.3-4.478-7.082C412.976,156.127,412.467,152.946,412.467,149.364z M442.424,142.852
			c0.081-1.003,0.162-2.082,0.244-3.235c0.081-1.153,0.074-2.28-0.021-3.378c-0.095-1.099-0.332-2.123-0.712-3.073
			c-0.38-0.95-0.977-1.709-1.791-2.279c-0.487-0.353-1.058-0.617-1.709-0.793s-1.411-0.265-2.279-0.265
			c-1.574,0-2.89,0.386-3.948,1.161c-1.058,0.772-1.92,1.777-2.584,3.011c-0.666,1.236-1.154,2.626-1.466,4.173
			c-0.312,1.546-0.522,3.107-0.631,4.68H442.424z"/>
		<path fill="#032C42" d="M461.902,157.586h6.716l2.564,4.437c0.325,0.353,0.719,0.773,1.18,1.262
			c0.462,0.488,1.004,0.957,1.629,1.404c0.624,0.448,1.336,0.841,2.137,1.18c0.8,0.34,1.702,0.536,2.707,0.59
			c2.441,0.136,4.294-0.271,5.556-1.221c1.262-0.949,1.878-2.238,1.852-3.867c-0.027-0.732-0.332-1.431-0.916-2.096
			c-0.583-0.665-1.363-1.316-2.34-1.954c-0.977-0.638-2.096-1.262-3.358-1.873c-1.262-0.611-2.584-1.228-3.968-1.852
			c-1.927-0.895-3.772-1.852-5.536-2.87c-1.765-1.018-3.311-2.177-4.64-3.48c-1.33-1.302-2.389-2.774-3.176-4.417
			c-0.786-1.641-1.166-3.52-1.139-5.637c0.027-1.628,0.346-3.073,0.956-4.335c0.611-1.262,1.425-2.367,2.442-3.318
			c1.018-0.949,2.184-1.763,3.5-2.442c1.316-0.677,2.693-1.227,4.132-1.648c1.438-0.42,2.883-0.739,4.335-0.956
			c1.451-0.217,2.828-0.339,4.131-0.367c1.547-0.027,3.106,0.021,4.682,0.143c1.573,0.122,3.072,0.299,4.496,0.529
			c1.426,0.231,2.741,0.489,3.949,0.774c1.207,0.284,2.231,0.59,3.072,0.916v11.111h-7.162l-2.28-5.047
			c-0.706-0.841-1.581-1.587-2.625-2.238c-1.045-0.651-2.178-0.977-3.399-0.977c-0.76,0-1.499,0.068-2.218,0.203
			c-0.72,0.136-1.357,0.36-1.913,0.672c-0.557,0.313-1.004,0.707-1.343,1.181c-0.34,0.476-0.509,1.038-0.509,1.689
			c0,0.895,0.183,1.723,0.549,2.482c0.366,0.76,0.875,1.473,1.527,2.137c0.65,0.665,1.431,1.282,2.34,1.852
			c0.908,0.569,1.905,1.099,2.992,1.587c1.302,0.598,2.624,1.194,3.968,1.792c1.343,0.597,2.651,1.235,3.928,1.913
			c1.275,0.678,2.476,1.411,3.603,2.197c1.125,0.788,2.109,1.684,2.95,2.687c0.841,1.004,1.506,2.124,1.995,3.358
			c0.487,1.235,0.732,2.639,0.732,4.212c0,2.686-0.584,4.959-1.75,6.818c-1.167,1.859-2.741,3.372-4.722,4.538
			c-1.981,1.167-4.288,2.009-6.92,2.523c-2.632,0.516-5.413,0.773-8.344,0.773c-1.303,0-2.68-0.067-4.131-0.203
			c-1.452-0.136-2.904-0.353-4.355-0.652c-1.452-0.298-2.856-0.678-4.213-1.139c-1.357-0.461-2.578-1.018-3.663-1.669V157.586z"/>
	</g>
</g>
</svg>
