<?xml version="1.0" encoding="utf-8"?>
<!-- Generator: Adobe Illustrator 15.0.0, SVG Export Plug-In . SVG Version: 6.00 Build 0)  -->
<!DOCTYPE svg PUBLIC "-//W3C//DTD SVG 1.1//EN" "http://www.w3.org/Graphics/SVG/1.1/DTD/svg11.dtd">
<svg version="1.1" id="Logo" xmlns="http://www.w3.org/2000/svg" xmlns:xlink="http://www.w3.org/1999/xlink" x="0px" y="0px"
	 width="200px" height="160px" viewBox="0 0 200 160" enable-background="new 0 0 200 160" xml:space="preserve">
<g id="Text" display="none">
	<g display="inline">
		<path fill="#115477" d="M56.696,130.012v-16.32c0-6.587,2.332-11.884,9.893-11.884c7.018,0,9.145,5.297,9.145,11.884v1.585h-3.282
			v-2.354c0-4.754-1.335-8.354-5.862-8.354c-5.071,0-6.451,3.6-6.451,8.354v17.859c0,4.753,1.38,8.376,6.451,8.376
			c4.527,0,5.862-3.623,5.862-8.376v-2.671h3.282v1.9c0,6.542-1.946,11.907-9.145,11.907
			C58.847,141.919,56.696,136.554,56.696,130.012z"/>
		<path fill="#115477" d="M116.306,141.309h-3.463c3.645-18.064,4.052-20.871,7.696-38.958h4.481l7.696,38.958h-3.485l-1.947-10.142
			h-8.986L116.306,141.309z M118.705,128.88h8.149l-4.098-22.953L118.705,128.88z"/>
		<path fill="#115477" d="M172.893,131.914l3.034-0.884c0.476,4.098,2.331,8.128,6.949,8.128c3.554,0,5.546-2.061,5.546-5.638
			c0-3.305-2.399-6.135-5.229-9.122l-6.089-6.406c-2.286-2.422-4.12-4.866-4.12-7.786c0-5.162,3.781-8.398,8.964-8.398
			c5.139,0,8.24,2.987,9.259,8.443l0.068,0.362l-2.897,0.905l-0.046-0.316c-0.565-3.645-2.671-6.633-6.384-6.633
			c-3.304,0-5.636,1.675-5.636,5.185c0,2.195,1.313,4.164,3.192,6.201l5.726,6.225c3.057,3.351,6.475,6.564,6.475,11.047
			c0,5.749-3.983,8.692-9.213,8.692C176.787,141.919,173.709,137.279,172.893,131.914z"/>
		<path fill="#115477" d="M234.029,141.309v-38.958h13.582v2.762h-10.141v14.759h7.243v2.604h-7.243v16.071h10.141v2.763H234.029z"
			/>
		<path fill="#115477" d="M281.183,131.914l3.033-0.884c0.475,4.098,2.331,8.128,6.949,8.128c3.554,0,5.546-2.061,5.546-5.638
			c0-3.305-2.399-6.135-5.229-9.122l-6.089-6.406c-2.286-2.422-4.119-4.866-4.119-7.786c0-5.162,3.78-8.398,8.964-8.398
			c5.138,0,8.239,2.987,9.258,8.443l0.067,0.362l-2.897,0.905l-0.045-0.316c-0.565-3.645-2.671-6.633-6.383-6.633
			c-3.305,0-5.637,1.675-5.637,5.185c0,2.195,1.312,4.164,3.191,6.201l5.728,6.225c3.056,3.351,6.474,6.564,6.474,11.047
			c0,5.749-3.984,8.692-9.213,8.692C285.075,141.919,281.997,137.279,281.183,131.914z"/>
	</g>
	<g display="inline">
		<path fill="#115477" d="M56.696,77.519V61.198c0-6.587,2.332-11.884,9.893-11.884c7.018,0,9.145,5.297,9.145,11.884v1.584h-3.282
			v-2.354c0-4.754-1.335-8.354-5.862-8.354c-5.071,0-6.451,3.6-6.451,8.354v17.86c0,4.754,1.38,8.375,6.451,8.375
			c4.527,0,5.862-3.621,5.862-8.375v-2.671h3.282v1.901c0,6.542-1.946,11.906-9.145,11.906
			C58.847,89.425,56.696,84.061,56.696,77.519z"/>
		<path fill="#115477" d="M116.306,88.813h-3.463c3.645-18.063,4.052-20.871,7.696-38.957h4.481l7.696,38.957h-3.485l-1.947-10.141
			h-8.986L116.306,88.813z M118.705,76.387h8.149l-4.098-22.954L118.705,76.387z"/>
		<path fill="#115477" d="M170.55,88.813V49.857h4.233l7.516,33.637c3.078-14.713,4.617-18.923,7.515-33.637h4.233v38.957h-3.056
			v-31.17l-7.198,31.17h-2.988l-7.198-31.147v31.147H170.55z"/>
		<path fill="#115477" d="M234.029,88.813V49.857h13.582v2.762h-10.141v14.759h7.243v2.603h-7.243v16.072h10.141v2.761H234.029z"/>
		<path fill="#115477" d="M285.672,88.813V49.857h3.44v36.196H300v2.761H285.672z"/>
	</g>
</g>
<path fill="#BB2512" d="M39.331,156.727c0,0-0.83,1.245-4.314,1.66c-3.483,0.414-5.392,0-6.388-0.332
	c-0.997-0.332-1.871-0.873-2.986-0.664c-0.623,0.119-0.747-1.242-0.829-2.571c-0.083-1.328-0.83-2.322-0.83-2.322
	s-0.332-1.08-0.166-2.074c0.166-0.995-8.298-26.052-13.524-31.941c0,0-0.579-0.166-0.081-2.406
	c0.496-2.24,1.908-10.205,2.653-14.437c0.746-4.231,0.249-5.061,0.249-5.061s-0.913-4.729-0.581-5.808
	c0.332-1.079-1.162-2.323-1.327-0.496c-0.167,1.823-0.725,3.51-1.16,4.977C9.6,96.745,10.365,98.847,9.88,98.9
	c-0.927,0.104-2.428-9.609-1.842,1.072c0.06,1.097-1.366-0.45-1.478-3.561c-0.036-0.995-0.598-0.881-0.995-0.995
	c-0.65-0.189-0.333-1.66-2.904-2.323c-2.572-0.664-1.991-2.821-1.742-3.319c0.247-0.496-0.83-2.57-0.913-2.985
	s0.747-1.41,0.996-1.908s-0.166-1.161,0.995-1.825c1.162-0.664-0.497-1.244-0.414-2.074c0.082-0.83,0.248-2.157,1.41-3.07
	c1.162-0.913,0.913-1.825,1.576-2.406c0.664-0.581,0.581-1.991-0.166-3.152c-0.746-1.162-1.161-3.983-0.332-5.228
	c0.83-1.244,0.83-3.401,0.83-5.228c0-1.824-0.332-7.632,0.249-10.12c0.581-2.489,0.166-2.074,0.996-4.979
	c0.829-2.904,5.391-8.047,7.3-9.127c1.908-1.078,3.152-3.733,4.313-4.646c1.162-0.913,6.638-4.147,11.284-5.89
	c4.646-1.743,6.886-4.896,8.628-7.052c1.743-2.157,10.62-11.533,20.16-16.095c9.542-4.563,10.537-1.908,12.529-0.415
	c1.99,1.493,5.061,1.162,8.378,4.646c3.318,3.485,4.563,8.047,8.877,10.536c4.315,2.489,6.222,3.318,9.707,3.484
	c3.486,0.166,13.69,1.245,24.56,14.353c10.867,13.109,17.752,10.289,19.33,9.874c1.577-0.415,7.3-2.987,11.449-14.768
	c0,0,0.161-0.286,0-1.991c-0.191-2.024-0.829-2.029,0.166-3.07c1.378-1.44,2.903-3.069,3.816-6.637
	c0.913-3.567,3.484-5.807,4.231-6.637c0.746-0.83,0.415-1.743,1.493-1.66c1.077,0.083,0.996-0.083,0.913-1.162
	s-0.332-2.655-0.332-2.655s0.747-2.82,3.07-0.581c0,0,0.912,1.328,2.321,1.328c1.411,0,4.148-0.166,5.726,0.747
	c1.575,0.912,2.985,0.249,3.816,0.747c0.829,0.498,1.659,0.664,4.646,0.332c2.985-0.332,3.4,0,7.385-0.166
	c3.981-0.166,5.143,1.079,6.636,3.07c1.494,1.991,3.568,3.982,3.403,5.309c-0.167,1.328-1.411,1.742-1.411,1.742
	s0.663,1.328,1.161,1.825c0.497,0.498,0.497,1.743-0.995,1.245c-1.493-0.498-2.904-1.659-3.402-1.41
	c-0.498,0.249-1.328,0.581-1.908,0.498c-0.581-0.083-1.908-0.166-2.738,0.747c-0.828,0.912-1.742,0.332-2.157,0.332
	s-5.226,2.488-7.134,2.903c-1.909,0.415-3.071,0.26-2.449,1.198c0,0,0.238,0.401-0.26,0.235c-0.498-0.166-1.412-0.384-0.601,0.8
	c0.76,1.112-3.147-1.575-0.82,1.452c0.317,0.415-0.67,0.276-1.582-0.139c-0.913-0.415-1.174-0.145-1.424,1.515
	c0,0-0.995,3.983-0.249,7.882c0.747,3.899,0.747,5.393-0.165,6.72c-0.913,1.329-2.738,1.909-3.068,2.158
	c-0.334,0.249-0.334,0.249-0.334,0.249s-0.83-0.167-0.332-2.738c0.498-2.572-1.328-3.9-2.323-1.659
	c-0.994,2.24-10.369,23.978-24.805,26.217c-14.438,2.241-19.415,1.659-20.826,0.996c-1.409-0.664-2.57,0.167-2.987,0.913
	c-0.413,0.747-6.304,5.228-9.789,6.554c0,0-0.58,2.241-1.825,4.148c-1.244,1.909-0.498,1.826-0.663,2.49
	c-0.167,0.663-7.136,14.435-8.63,21.321c-1.493,6.885-0.995,8.379-1.991,10.038c-0.994,1.659-2.157,4.148-2.24,5.394
	c-0.081,1.244-0.664,9.126-0.498,11.366c0.168,2.238,0.498,8.378,0.915,8.959c0.414,0.582,0.829,1.162,1.576,1.327
	c0.745,0.167,1.326,0.249,1.908,0.415c0.581,0.166,0.413-0.497,1.077-0.332c0.664,0.166,2.572,0.913,2.572,2.157
	c0,0,0.249,0.25-0.83,0.415c0,0,0.747,1.162,0.332,1.328c-0.413,0.165-2.738,0.661-3.733,0.829c-0.994,0.166-1.99-0.249-5.309,0
	c0,0,0.248,1.493,1.576,2.24c0,0,1.161-0.083,2.406,0.581c0,0,2.074-0.415,2.074,0.581c0,0.995-0.23,1.825-0.415,1.908
	c-0.256,0.115-0.831-0.083-1.163,0c0,0,0.249,0.747-0.332,1.161c-0.579,0.413-0.701,0.643-0.994,0.747
	c-0.142,0.048-1.908,0.166-3.152,0.413c-1.245,0.249-1.742-0.578-2.572-0.994c-0.83-0.415-3.485-0.748-4.065-0.666
	c0,0-0.83-0.497-0.913-1.574c0,0,0-0.58,0.83-1.078c0.829-0.498,1.41-2.655,1.41-2.655s-0.937-1.769-0.995-2.323
	c-0.046-0.413-0.129-1.681,0-2.074c0.171-0.529,0.331-2.24,1.078-3.65c0,0,0.913-11.614,1.078-15.93
	c0.167-4.313-0.414-9.29-0.414-9.873c0-0.58-0.166-1.659,0.414-2.902c0.581-1.246,4.896-26.051,4.647-31.029
	c0,0-2.572-0.083-3.236-0.249s-2.074-1.162-4.563-0.746c-2.489,0.415-4.314-0.166-4.314-0.166s-2.323-0.415-3.401-0.25
	c-1.079,0.167-2.819,2.904-21.239-1.576c0,0-0.332-0.332-1.409,0c-1.078,0.332-3.154-0.83-3.567-1.327
	c-0.415-0.499-9.459-4.979-10.372-4.979c0,0-0.332,4.066-1.99,6.389c-1.66,2.323-2.738,1.825-3.815,2.323
	c-1.08,0.497-1.578,1.327-1.661,2.073c-0.081,0.747-1.825,3.734-2.572,5.062c-0.745,1.328,0.498,0-0.911,2.406
	c-1.41,2.404-3.236,4.894-3.319,6.056c-0.083,1.161-0.083,5.227-0.663,8.709c-0.581,3.486-1.079,7.47-0.581,8.464
	c0.497,0.996,0.746,3.07,0.497,4.48c-0.248,1.411,3.07,18.916,9.541,25.222c0,0,1.825,1.079,2.738,1.41
	c0.912,0.332,2.992-0.096,4.832,2.615c0,0,1.308,1.201-0.518,1.201c-1.826,0-2.987-0.168-4.149,0.498
	c-1.161,0.663-1.825,0.415-2.488,0.166c-0.664-0.25-3.649-0.995-4.646-1.162c-0.996-0.166-0.828-0.664-0.415-1.244
	c0.415-0.58-0.745-2.074-1.99-3.568c0,0-0.746-1.243,0-2.488c0,0-2.24-5.891-5.476-10.951c0,0,0,5.809,4.48,16.262
	c0,0,1.742,1.907,3.234,4.396c0,0,1.993,0.747,4.979,3.234C35.515,153.906,38.668,153.324,39.331,156.727z"/>
</svg>
