<?xml version="1.0" encoding="utf-8"?>
<!-- Generator: Adobe Illustrator 15.0.0, SVG Export Plug-In . SVG Version: 6.00 Build 0)  -->
<!DOCTYPE svg PUBLIC "-//W3C//DTD SVG 1.1//EN" "http://www.w3.org/Graphics/SVG/1.1/DTD/svg11.dtd">
<svg version="1.1" id="Layer_1" xmlns="http://www.w3.org/2000/svg" xmlns:xlink="http://www.w3.org/1999/xlink" x="0px" y="0px"
	 width="110px" height="24px" viewBox="0 0 110 24" enable-background="new 0 0 110 24" xml:space="preserve">
<g>
	<path fill="#032C42" d="M5.366,23.724C1.167,23.724,0,20.735,0,16.537v-5.572c0-4.199,1.167-7.177,5.366-7.177
		c3.937,0,5.202,2.553,5.202,6.479H7.776c0-2.378-0.076-4.188-2.41-4.188c-2.333,0-2.574,1.81-2.574,4.188v6.979
		c0,2.138,0.447,4.188,2.574,4.188c2.138,0,2.41-2.05,2.41-4.188v-0.698h2.792v0.698C10.568,21.128,9.281,23.724,5.366,23.724z"/>
	<path fill="#032C42" d="M13.894,23.527h-2.792L15.29,3.984h2.792l4.188,19.543h-2.792l-1.047-4.886h-3.49L13.894,23.527z
		 M16.686,8.173l-1.396,8.375h2.792L16.686,8.173z"/>
	<path fill="#032C42" d="M26.534,8.107v15.42h-2.792V3.984h3.86l2.77,14.963l2.77-14.963h3.861v19.543h-2.792V8.107l-2.792,15.42
		h-2.094L26.534,8.107z"/>
	<path fill="#032C42" d="M41.607,14.454v6.979h4.887v2.094h-7.679V3.984h7.679v2.095h-4.887v6.281h3.491v2.094H41.607z"/>
	<path fill="#032C42" d="M48.206,3.984h2.792v17.449h4.886v2.094h-7.677V3.984z"/>
	<path fill="#032C42" d="M61.663,23.724c-4.198,0-5.365-2.988-5.365-7.187V7.452c0-4.199,1.167-7.176,5.365-7.176
		c3.937,0,5.202,2.552,5.202,6.478h-2.792c0-2.377-0.076-4.188-2.41-4.188S59.09,4.377,59.09,6.754v10.492
		c0,2.138,0.446,4.188,2.573,4.188c2.138,0,2.41-2.05,2.41-4.188v-0.698h2.792v0.698C66.865,21.128,65.578,23.724,61.663,23.724z"/>
	<path fill="#032C42" d="M70.191,23.527h-2.792l4.188-19.543h2.792l4.188,19.543h-2.791l-1.048-4.886h-3.489L70.191,23.527z
		 M72.983,8.173l-1.396,8.375h2.792L72.983,8.173z"/>
	<path fill="#032C42" d="M83.543,6.079c-1.352,0-2.094,0.796-2.094,2.126c0,1.211,0.633,2.148,1.396,2.76l3.489,2.791
		c1.429,1.156,2.792,2.901,2.792,5.398c0,2.9-1.952,4.569-4.886,4.569c-3.653,0-5.376-2.366-5.584-5.779l2.792-0.698
		c0.099,2.018,0.677,4.188,2.792,4.188c1.396,0,2.094-0.698,2.094-2.094c0-1.756-1.079-2.672-2.094-3.489l-3.489-2.792
		c-1.2-0.938-2.105-2.486-2.105-4.559c0-2.901,1.963-4.712,4.896-4.712c3.457,0,5.333,1.909,5.584,5.082l-2.792,0.698
		C86.215,7.715,85.518,6.079,83.543,6.079z"/>
	<path fill="#032C42" d="M93.424,14.454v6.979h4.886v2.094h-7.678V3.984h7.678v2.095h-4.886v6.281h3.489v2.094H93.424z"/>
	<path fill="#032C42" d="M104.417,6.079c-1.353,0-2.095,0.796-2.095,2.126c0,1.211,0.633,2.148,1.396,2.76l3.489,2.791
		c1.429,1.156,2.792,2.901,2.792,5.398c0,2.9-1.952,4.569-4.886,4.569c-3.653,0-5.376-2.366-5.583-5.779l2.791-0.698
		c0.099,2.018,0.677,4.188,2.792,4.188c1.396,0,2.094-0.698,2.094-2.094c0-1.756-1.079-2.672-2.094-3.489l-3.489-2.792
		c-1.2-0.938-2.105-2.486-2.105-4.559c0-2.901,1.964-4.712,4.897-4.712c3.457,0,5.332,1.909,5.583,5.082l-2.792,0.698
		C107.089,7.715,106.391,6.079,104.417,6.079z"/>
</g>
</svg>
